<?xml version="1.0" encoding="UTF-8"?>
<svg version="1.1" xmlns="http://www.w3.org/2000/svg" width="500" height="500">
<path d="M0 0 C1.55460937 0.56074219 1.55460937 0.56074219 3.140625 1.1328125 C15.57389913 5.9467212 25.51233372 12.67720628 35 22 C35.82886719 22.7940625 36.65773438 23.588125 37.51171875 24.40625 C55.40973879 43.06289883 61.72847118 66.04384453 61.390625 91.28515625 C61.38313745 92.96479101 61.37745647 94.64443469 61.37347412 96.32408142 C61.35841501 100.68231591 61.31931147 105.03999199 61.2746582 109.39801025 C61.23327196 113.8700811 61.21537188 118.34224478 61.1953125 122.81445312 C61.15279139 131.54322113 61.08478946 140.27154055 61 149 C61.85231201 148.97381592 62.70462402 148.94763184 63.58276367 148.9206543 C66.76027127 148.83518508 69.9371911 148.77263211 73.11547852 148.7253418 C74.48807102 148.70027383 75.86053102 148.66620918 77.23266602 148.62280273 C79.21050696 148.56182469 81.18934184 148.53638991 83.16796875 148.51171875 C84.35672607 148.48553467 85.5454834 148.45935059 86.77026367 148.43237305 C90.9696517 149.17041653 92.41586579 150.67281702 95 154 C95.62145996 156.01216125 95.62145996 156.01216125 95.61523438 157.9855957 C95.6291925 159.10880974 95.6291925 159.10880974 95.64343262 160.25471497 C95.62703735 161.05366684 95.61064209 161.85261871 95.59375 162.67578125 C95.59379028 163.51860153 95.59383057 164.36142181 95.59387207 165.2297821 C95.58851818 167.01597535 95.57094077 168.80216809 95.54199219 170.58813477 C95.50071816 173.26590727 95.50088165 175.9411086 95.5078125 178.61914062 C95.39496386 208.92058311 85.64595637 237.10840953 66.24072266 260.484375 C65.05679176 261.9306251 63.92333894 263.41776253 62.79296875 264.90625 C62.20128906 265.5971875 61.60960937 266.288125 61 267 C60.34 267 59.68 267 59 267 C58.34 268.32 57.68 269.64 57 271 C56.34 271 55.68 271 55 271 C55 271.66 55 272.32 55 273 C53.09825554 274.65382229 51.20053023 276.17934101 49.1875 277.6875 C48.59219482 278.13593262 47.99688965 278.58436523 47.38354492 279.04638672 C27.77183088 293.67074056 5.63421618 303.21380161 -19 304 C-19 310.93 -19 317.86 -19 325 C-16.64875 324.9071875 -16.64875 324.9071875 -14.25 324.8125 C4.62867245 324.83484162 26.19713637 328.77817533 41.5 340.4375 C45.64462517 344.6857408 48.17754674 348.39269337 48.5625 354.4375 C48.24618408 360.43729877 45.52504402 364.52743958 41.30859375 368.65625 C16.55337994 388.91521412 -27.21325118 386.12572603 -57.125 383.25 C-73.93462169 381.36361604 -92.531997 377.2345482 -104 363.8125 C-106.97795771 359.32049646 -106.75426141 354.18455474 -106 349 C-104.97265625 346.66796875 -104.97265625 346.66796875 -104 345 C-103.34 345 -102.68 345 -102 345 C-101.76152344 344.4121875 -101.52304688 343.824375 -101.27734375 343.21875 C-96.99189069 335.77490492 -86.87568996 332.16076622 -79 330 C-74.02380955 328.84750568 -69.02722133 327.90000043 -64 327 C-62.989375 326.79246094 -61.97875 326.58492188 -60.9375 326.37109375 C-52.5432138 324.74013869 -44.52823535 324.85296146 -36 325 C-36 318.07 -36 311.14 -36 304 C-38.206875 303.95875 -40.41375 303.9175 -42.6875 303.875 C-49.70680274 303.55614349 -56.19813662 302.13361348 -62.9375 300.1875 C-64.23143677 299.8150415 -64.23143677 299.8150415 -65.55151367 299.43505859 C-78.74437232 295.44814296 -90.95608899 288.94290658 -102.3125 281.1875 C-102.88194336 280.80247314 -103.45138672 280.41744629 -104.03808594 280.02075195 C-105.3985355 279.06831075 -106.70547795 278.04027877 -108 277 C-108 276.34 -108 275.68 -108 275 C-108.66 275 -109.32 275 -110 275 C-110 274.34 -110 273.68 -110 273 C-110.556875 272.773125 -111.11375 272.54625 -111.6875 272.3125 C-114.66159588 270.62449964 -116.72008865 268.53323483 -119 266 C-119 265.34 -119 264.68 -119 264 C-119.66 264 -120.32 264 -121 264 C-121 263.34 -121 262.68 -121 262 C-121.66 262 -122.32 262 -123 262 C-134.71074341 248.73430311 -143.37926148 231.98722369 -148 215 C-148.32355469 213.93265625 -148.64710938 212.8653125 -148.98046875 211.765625 C-152.63913246 198.25239965 -153.2958271 184.43041378 -153.3125 170.5 C-153.31590393 169.81647461 -153.31930786 169.13294922 -153.32281494 168.42871094 C-153.35980685 155.47609071 -153.35980685 155.47609071 -151 151 C-147.36693942 148.57795962 -145.68180977 148.76697109 -141.36328125 148.8046875 C-140.06455078 148.81113281 -138.76582031 148.81757813 -137.42773438 148.82421875 C-136.05598693 148.8409294 -134.68424214 148.85785929 -133.3125 148.875 C-131.92904282 148.88503326 -130.54557873 148.89415851 -129.16210938 148.90234375 C-125.77456548 148.92595033 -122.38736928 148.95887963 -119 149 C-119.00888245 148.12542145 -119.01776489 147.2508429 -119.0269165 146.34976196 C-119.10773741 138.02608614 -119.16830246 129.70254588 -119.20724869 121.37856483 C-119.2279458 117.10116183 -119.25592721 112.8240884 -119.30175781 108.546875 C-119.34586544 104.403577 -119.36927064 100.26059189 -119.37950897 96.11707687 C-119.38678598 94.55214906 -119.40098764 92.98723442 -119.42292023 91.42244339 C-119.68908548 71.60809456 -115.10487641 54.13283543 -105 37 C-104.443125 35.989375 -103.88625 34.97875 -103.3125 33.9375 C-102.879375 33.298125 -102.44625 32.65875 -102 32 C-101.34 32 -100.68 32 -100 32 C-99.731875 31.195625 -99.46375 30.39125 -99.1875 29.5625 C-98.5996875 28.2940625 -98.5996875 28.2940625 -98 27 C-97.01 26.67 -96.02 26.34 -95 26 C-94.32523692 24.67074569 -93.66003444 23.33662888 -93 22 C-70.19701632 -2.14171071 -31.27389261 -11.90275017 0 0 Z M-69 25 C-69.66644531 25.39703125 -70.33289063 25.7940625 -71.01953125 26.203125 C-72.83516464 27.30888567 -72.83516464 27.30888567 -75 29 C-75 29.66 -75 30.32 -75 31 C-75.66 31 -76.32 31 -77 31 C-77 31.66 -77 32.32 -77 33 C-77.60199219 33.26941406 -78.20398438 33.53882812 -78.82421875 33.81640625 C-88.91754832 39.30703257 -95.65973807 54.64057013 -99 65 C-99 66.32 -99 67.64 -99 69 C-97.80922852 69.02505615 -96.61845703 69.0501123 -95.39160156 69.07592773 C-90.97092042 69.17014647 -86.5503911 69.27033189 -82.12988281 69.37231445 C-80.21715854 69.41560857 -78.304397 69.45728756 -76.39160156 69.49731445 C-73.64116182 69.5551508 -70.89090872 69.61880676 -68.140625 69.68359375 C-66.85916595 69.70866249 -66.85916595 69.70866249 -65.55181885 69.73423767 C-64.35102692 69.7641555 -64.35102692 69.7641555 -63.12597656 69.79467773 C-62.42426331 69.81022202 -61.72255005 69.8257663 -60.99957275 69.84178162 C-58.90814203 70.00726836 -57.01743692 70.43584497 -55 71 C-55 71.66 -55 72.32 -55 73 C-54.34 73 -53.68 73 -53 73 C-53.06023265 74.60520004 -53.14908599 76.20934327 -53.25 77.8125 C-53.29640625 78.70582031 -53.3428125 79.59914063 -53.390625 80.51953125 C-54 83 -54 83 -55.42578125 84.62304688 C-59.4189875 86.75901835 -63.33352678 86.48071581 -67.796875 86.51171875 C-68.74564514 86.52966995 -69.69441528 86.54762115 -70.67193604 86.56611633 C-73.69791235 86.62023506 -76.72373078 86.65412026 -79.75 86.6875 C-81.80340739 86.72067167 -83.85679395 86.75516119 -85.91015625 86.79101562 C-90.93999028 86.87596257 -95.96977736 86.94276651 -101 87 C-101 92.94 -101 98.88 -101 105 C-98.3496875 105.06058594 -95.699375 105.12117188 -92.96875 105.18359375 C-90.3805092 105.24553515 -87.79230564 105.30885958 -85.20410156 105.37231445 C-83.41572434 105.41542539 -81.62731224 105.45711546 -79.83886719 105.49731445 C-77.25705489 105.55559951 -74.67541432 105.61912088 -72.09375 105.68359375 C-71.30383667 105.70030624 -70.51392334 105.71701874 -69.70007324 105.73423767 C-64.73739671 105.86444514 -59.9172762 106.31187519 -55 107 C-52.81664316 114.15655853 -52.81664316 114.15655853 -53.625 117.875 C-55.23815373 120.36805577 -56.28156141 120.89550371 -59 122 C-61.07550049 122.2784729 -61.07550049 122.2784729 -63.30957031 122.31884766 C-64.5704245 122.34865219 -64.5704245 122.34865219 -65.85675049 122.37905884 C-66.75480408 122.39061005 -67.65285767 122.40216125 -68.578125 122.4140625 C-69.96798615 122.44311172 -69.96798615 122.44311172 -71.38592529 122.4727478 C-74.34052371 122.53244767 -77.29516129 122.57889068 -80.25 122.625 C-82.25522517 122.6631886 -84.26043409 122.70224085 -86.265625 122.7421875 C-91.17699799 122.83976445 -96.08820137 122.91940918 -101 123 C-101 129.27 -101 135.54 -101 142 C-85.82 142.33 -70.64 142.66 -55 143 C-53 152 -53 152 -54.25 155 C-56.12322594 157.14082965 -57.04385003 157.91922898 -59.87295532 158.15821838 C-60.63240448 158.17376266 -61.39185364 158.18930695 -62.17431641 158.20532227 C-63.03505768 158.22526749 -63.89579895 158.24521271 -64.78262329 158.26576233 C-65.71287323 158.28247482 -66.64312317 158.29918732 -67.6015625 158.31640625 C-69.02896255 158.3475779 -69.02896255 158.3475779 -70.48519897 158.37937927 C-73.53172432 158.44488133 -76.57833743 158.5037628 -79.625 158.5625 C-81.68750916 158.60568459 -83.75000937 158.64929886 -85.8125 158.69335938 C-90.87490954 158.8005634 -95.93740755 158.90182902 -101 159 C-101.02683987 161.97922593 -101.04676037 164.95821295 -101.0625 167.9375 C-101.07087891 168.78763672 -101.07925781 169.63777344 -101.08789062 170.51367188 C-101.09111328 171.32255859 -101.09433594 172.13144531 -101.09765625 172.96484375 C-101.10289307 173.7137085 -101.10812988 174.46257324 -101.11352539 175.23413086 C-101.19341752 177.02667739 -101.19341752 177.02667739 -100 178 C-98.58882298 178.12209924 -97.17179541 178.17770872 -95.75561523 178.20532227 C-94.85475693 178.22526749 -93.95389862 178.24521271 -93.02574158 178.26576233 C-92.04658279 178.28247482 -91.06742401 178.29918732 -90.05859375 178.31640625 C-88.56248314 178.3475779 -88.56248314 178.3475779 -87.03614807 178.37937927 C-83.83667157 178.44498637 -80.63711018 178.50381134 -77.4375 178.5625 C-75.27407961 178.60567462 -73.11066794 178.64928855 -70.94726562 178.69335938 C-65.63160126 178.80067903 -60.31585166 178.90242427 -55 179 C-52.90625 186.640625 -52.90625 186.640625 -53.75 189.875 C-55 192 -55 192 -57 194 C-58.83499146 194.2784729 -58.83499146 194.2784729 -61.08251953 194.31884766 C-62.34360031 194.34865219 -62.34360031 194.34865219 -63.63015747 194.37905884 C-64.99272171 194.39638565 -64.99272171 194.39638565 -66.3828125 194.4140625 C-67.31221649 194.43342865 -68.24162048 194.4527948 -69.19918823 194.4727478 C-72.1743648 194.53263685 -75.14957988 194.5789661 -78.125 194.625 C-80.13934 194.66317121 -82.15366354 194.70222243 -84.16796875 194.7421875 C-89.11184575 194.838346 -94.05579917 194.9223424 -99 195 C-98.86279541 196.24869873 -98.72559082 197.49739746 -98.58422852 198.78393555 C-98.50705093 199.48632858 -98.42987335 200.18872162 -98.35035706 200.91239929 C-96.77713226 210.28645114 -89.15072069 221.07160198 -83 228 C-82.34 228 -81.68 228 -81 228 C-81 228.66 -81 229.32 -81 230 C-78.91486932 231.86580137 -76.83152869 233.60036264 -74.625 235.3125 C-73.98449707 235.81015869 -73.34399414 236.30781738 -72.68408203 236.82055664 C-55.40721701 249.97182918 -35.46797589 252.84261349 -14.296875 250.609375 C0.39417722 247.73022406 13.59081721 239.58010533 24 229 C24.33 228.01 24.66 227.02 25 226 C25.66 226 26.32 226 27 226 C28.7194967 223.82704311 30.27922945 221.67546726 31.8125 219.375 C32.26028809 218.70509033 32.70807617 218.03518066 33.16943359 217.3449707 C37.22279165 211.05408233 42 202.67557815 42 195 C40.11510864 194.96241577 40.11510864 194.96241577 38.19213867 194.92407227 C33.53480643 194.82997705 28.87762259 194.72976141 24.22045898 194.62768555 C22.20389271 194.58434471 20.18728993 194.54266902 18.1706543 194.50268555 C15.27381383 194.44496253 12.37715694 194.38127378 9.48046875 194.31640625 C8.57725388 194.29969376 7.674039 194.28298126 6.74345398 194.26576233 C5.90280899 194.24581711 5.062164 194.22587189 4.19604492 194.20532227 C3.45658127 194.18977798 2.71711761 194.1742337 1.95524597 194.15821838 C0 194 0 194 -3 193 C-4.39023153 188.8293054 -4.81453965 184.94919359 -3.08618164 180.81323242 C0.35589124 177.82150916 4.21966397 178.41662307 8.62890625 178.42578125 C9.57434799 178.41161667 10.51978973 178.39745209 11.49388123 178.38285828 C14.51686948 178.34088468 17.53926105 178.32570401 20.5625 178.3125 C23.58903164 178.28347025 26.61541066 178.24894936 29.64183044 178.21000671 C31.52592588 178.1874762 33.4101159 178.17168313 35.29432678 178.16316223 C36.14538498 178.15612778 36.99644318 178.14909332 37.87329102 178.1418457 C38.62369156 178.13836624 39.3740921 178.13488678 40.14723206 178.13130188 C42.09485863 178.11209866 42.09485863 178.11209866 44 177 C44 171.06 44 165.12 44 159 C42.71834961 158.98018066 41.43669922 158.96036133 40.11621094 158.93994141 C35.35998933 158.86385497 30.60407243 158.77514202 25.84814453 158.68261719 C23.78993751 158.64434005 21.73166388 158.60948496 19.67333984 158.578125 C16.71427612 158.53244722 13.75567043 158.47445698 10.796875 158.4140625 C9.87694763 158.40251129 8.95702026 158.39096008 8.00921631 158.37905884 C7.1486261 158.35918915 6.28803589 158.33931946 5.40136719 158.31884766 C4.64635925 158.30552399 3.89135132 158.29220032 3.11346436 158.2784729 C0.69229286 157.95945609 -0.92785869 157.28110481 -3 156 C-4.52846661 152.94306678 -4.23242445 150.37015453 -4 147 C-2.76383972 144.80755615 -2.76383972 144.80755615 -1 143 C1.06913757 142.48101807 1.06913757 142.48101807 3.47143555 142.45410156 C4.37214279 142.43438293 5.27285004 142.41466431 6.20085144 142.39434814 C7.65410576 142.39250519 7.65410576 142.39250519 9.13671875 142.390625 C10.13129593 142.37408875 11.12587311 142.35755249 12.15058899 142.34051514 C15.32962129 142.2919005 18.5081748 142.27063406 21.6875 142.25 C23.84182114 142.22185163 25.99611984 142.19192581 28.15039062 142.16015625 C33.43355435 142.08613772 38.71645017 142.03664525 44 142 C44 135.73 44 129.46 44 123 C39.53919922 122.92652344 39.53919922 122.92652344 34.98828125 122.8515625 C32.10224455 122.79752428 29.2162896 122.74022792 26.33032227 122.68261719 C24.32745476 122.64437783 22.32451975 122.60951619 20.3215332 122.578125 C17.43937083 122.53236504 14.55767106 122.47438846 11.67578125 122.4140625 C10.78288895 122.40251129 9.88999664 122.39096008 8.970047 122.37905884 C4.61342214 122.27606608 0.89684712 122.1877548 -3 120 C-4.58910767 116.82178465 -4.40420974 113.46060271 -4 110 C-2.18836733 107.32568511 -1.12238923 107.04079641 2 106 C3.39579273 105.88705254 4.79599909 105.82410813 6.19604492 105.79467773 C7.45701241 105.7647599 7.45701241 105.7647599 8.74345398 105.73423767 C9.64666885 105.71752518 10.54988373 105.70081268 11.48046875 105.68359375 C12.40845779 105.66281265 13.33644684 105.64203156 14.29255676 105.62062073 C17.2574624 105.55522677 20.22245672 105.49628738 23.1875 105.4375 C25.1972748 105.39430513 27.20704063 105.35069053 29.21679688 105.30664062 C34.14444032 105.19955573 39.07217299 105.09825955 44 105 C44 99.06 44 93.12 44 87 C42.71834961 86.97494385 41.43669922 86.9498877 40.11621094 86.92407227 C35.3600875 86.82988405 30.60410621 86.7296911 25.84814453 86.62768555 C23.78991013 86.58437991 21.73164082 86.54270171 19.67333984 86.50268555 C16.71441121 86.44487725 13.7556576 86.38121304 10.796875 86.31640625 C9.87694763 86.29969376 8.95702026 86.28298126 8.00921631 86.26576233 C7.1486261 86.24581711 6.28803589 86.22587189 5.40136719 86.20532227 C4.26885529 86.18200584 4.26885529 86.18200584 3.11346436 86.15821838 C0.9173804 85.99381492 -0.93500017 85.77944313 -3 85 C-3.89214652 82.32356043 -4.13540211 80.74615622 -4.125 78 C-4.12757813 77.319375 -4.13015625 76.63875 -4.1328125 75.9375 C-4 74 -4 74 -3 71 C-0.29042123 69.98378155 2.34387068 69.85676823 5.21777344 69.79467773 C6.03832214 69.77473251 6.85887085 69.75478729 7.70428467 69.73423767 C9.01855438 69.70916893 9.01855438 69.70916893 10.359375 69.68359375 C11.26375305 69.66281265 12.1681311 69.64203156 13.09991455 69.62062073 C15.98320055 69.5553406 18.8665761 69.49634048 21.75 69.4375 C23.70704044 69.39429429 25.66407188 69.35067935 27.62109375 69.30664062 C32.4139712 69.19968128 37.20693854 69.09835327 42 69 C41.37768356 66.9366887 40.75203215 64.8743831 40.125 62.8125 C39.77695312 61.66394531 39.42890625 60.51539063 39.0703125 59.33203125 C38.15781129 56.49128843 37.15019636 53.75114535 36 51 C35.34 51 34.68 51 34 51 C33.773125 50.34 33.54625 49.68 33.3125 49 C31.6121185 45.11341372 29.60376916 41.36320183 27 38 C26.34 38 25.68 38 25 38 C25 37.34 25 36.68 25 36 C24.34 36 23.68 36 23 36 C23 35.34 23 34.68 23 34 C9.16844439 20.39019277 -8.96040893 12.91467577 -28.3125 12.8125 C-43.16260086 12.94378773 -56.29598273 17.38986405 -69 25 Z M-135 166 C-135.56443547 186.88411245 -135.11993346 205.8605478 -126 225 C-125.32221878 226.66217774 -124.65219876 228.32761877 -124 230 C-123.34 230 -122.68 230 -122 230 C-121.89429688 230.556875 -121.78859375 231.11375 -121.6796875 231.6875 C-118.74873113 241.65948949 -110.06513478 249.71847519 -103 257 C-102.27167969 257.77472656 -101.54335937 258.54945313 -100.79296875 259.34765625 C-99.16125339 261.22589367 -99.16125339 261.22589367 -97 261 C-97 261.66 -97 262.32 -97 263 C-73.29121883 282.56786391 -43.87186612 289.59556753 -13.65625 286.78173828 C6.68757665 284.04129383 25.75757896 274.48263886 41 261 C41.75667969 260.46117187 42.51335937 259.92234375 43.29296875 259.3671875 C43.85628906 258.91601562 44.41960937 258.46484375 45 258 C45 257.34 45 256.68 45 256 C45.66 256 46.32 256 47 256 C47 255.34 47 254.68 47 254 C47.66 254 48.32 254 49 254 C49 253.34 49 252.68 49 252 C49.66 252 50.32 252 51 252 C69.38802969 230.45442986 78.30673766 204.51869386 78.0625 176.375 C78.05573242 174.86873047 78.05573242 174.86873047 78.04882812 173.33203125 C78.03718985 170.88799435 78.01926086 168.44398872 78 166 C72.39 166 66.78 166 61 166 C60.97421875 167.69125 60.9484375 169.3825 60.921875 171.125 C60.63820804 183.93729115 60.14479787 195.80445914 56 208 C55.47599609 209.55460937 55.47599609 209.55460937 54.94140625 211.140625 C52.423801 217.79616276 48.91874925 223.59179975 44.9465332 229.45751953 C42.71693057 232.45803917 42.71693057 232.45803917 42 236 C41.34 236 40.68 236 40 236 C38.26306842 237.75521948 38.26306842 237.75521948 36.5 239.9375 C33.20241692 243.89879154 33.20241692 243.89879154 31 245 C31 245.66 31 246.32 31 247 C30.43152344 247.26296875 29.86304688 247.5259375 29.27734375 247.796875 C26.83763678 249.08577679 24.77054995 250.59675518 22.5625 252.25 C2.26129762 266.56800344 -22.52249805 269.52264297 -46.69384766 266.68359375 C-50.97733531 265.91142271 -54.97116973 264.62529684 -59 263 C-59.97066406 262.61457031 -60.94132812 262.22914063 -61.94140625 261.83203125 C-64.68884715 260.65128126 -67.33932552 259.36404176 -70 258 C-70.93714844 257.5359375 -71.87429687 257.071875 -72.83984375 256.59375 C-78.37288683 253.73994451 -82.94663623 250.63753443 -87.44140625 246.3203125 C-88.91389865 244.78454308 -88.91389865 244.78454308 -91 245 C-91.33 244.01 -91.66 243.02 -92 242 C-92.66 242 -93.32 242 -94 242 C-94.24363281 241.45085937 -94.48726562 240.90171875 -94.73828125 240.3359375 C-96.2732329 237.49413846 -98.17596353 235.15240383 -100.1875 232.625 C-112.79999451 216.22646257 -117.99641128 197.22853776 -118.625 176.8125 C-118.66367188 175.76513672 -118.70234375 174.71777344 -118.7421875 173.63867188 C-118.83519118 171.09269622 -118.91861884 168.54637366 -119 166 C-124.28 166 -129.56 166 -135 166 Z M-66.5 345.375 C-67.4077417 345.57182373 -68.3154834 345.76864746 -69.25073242 345.97143555 C-75.93739049 347.51876646 -81.87678988 349.93839494 -88 353 C-87.87822312 354.91466367 -87.87822312 354.91466367 -87 357 C-65.21212987 372.31897608 -21.82901788 369.2939166 3.2980957 365.05981445 C17.64807035 362.85324416 17.64807035 362.85324416 30 356 C30 355.01 30 354.02 30 353 C22.47802744 348.61218267 14.41281665 346.86690558 6 345 C5.3395166 344.85143555 4.6790332 344.70287109 3.99853516 344.54980469 C-19.75752778 339.27332643 -42.87849359 340.17395253 -66.5 345.375 Z " fill="#0F0F0F" transform="translate(279,61)"/>
<path d="M0 0 C-1 2 -2 4 -3 6 C-2.46375 6.061875 -1.9275 6.12375 -1.375 6.1875 C2.20372005 7.41179896 4.25995524 9.38450273 7 12 C7 12.99 7 13.98 7 15 C17.89 15 28.78 15 40 15 C40 21.6 40 28.2 40 35 C39.01 34.67 38.02 34.34 37 34 C37.66 34 38.32 34 39 34 C39 28.06 39 22.12 39 16 C37.08537964 16.02356567 37.08537964 16.02356567 35.13208008 16.04760742 C30.38914316 16.10197381 25.6462337 16.13637463 20.90307617 16.16479492 C18.85159674 16.17986622 16.80014944 16.20032682 14.7487793 16.22631836 C11.79728252 16.26277424 8.84621237 16.27974306 5.89453125 16.29296875 C4.52238213 16.31619453 4.52238213 16.31619453 3.12251282 16.33988953 C-1.72666191 16.34116642 -5.09458196 16.22762227 -9 13 C-10.52846661 9.94306678 -10.23242445 7.37015453 -10 4 C-7.87039216 -0.88557093 -4.92153042 -0.37143626 0 0 Z " fill="#414141" transform="translate(284,204)"/>
<path d="M0 0 C0.33 0 0.66 0 1 0 C1 25.08 1 50.16 1 76 C0.67 76 0.34 76 0 76 C-0.33 62.8 -0.66 49.6 -1 36 C-1.495 36.495 -1.495 36.495 -2 37 C-7.8410596 37.37086093 -7.8410596 37.37086093 -10 37 C-12.31282587 33.53076119 -12.42478586 32.07794425 -12 28 C-10.875 26.125 -10.875 26.125 -9 25 C-5.90498792 24.74734595 -3.79870027 24.60064987 -1 26 C-0.67 17.42 -0.34 8.84 0 0 Z " fill="#272727" transform="translate(339,134)"/>
<path d="M0 0 C14.19 0 28.38 0 43 0 C43 0.33 43 0.66 43 1 C32.605 1.495 32.605 1.495 22 2 C22.33 2.99 22.66 3.98 23 5 C21.0625 4.6875 21.0625 4.6875 19 4 C18.67 3.01 18.34 2.02 18 1 C17.34 1 16.68 1 16 1 C16.66 1.99 17.32 2.98 18 4 C18.375 6.4375 18.375 6.4375 18 9 C16.25 11.375 16.25 11.375 14 13 C11.01227779 13 10.08158596 12.07911366 7.9375 10 C7.298125 9.34 6.65875 8.68 6 8 C5.01 7.67 4.02 7.34 3 7 C4 5 5 3 6 1 C4.02 1 2.04 1 0 1 C0 0.67 0 0.34 0 0 Z " fill="#202020" transform="translate(278,203)"/>
<path d="M0 0 C2.99220268 1.36370299 5.29026529 2.94908083 7.75 5.125 C8.67039063 5.93324219 8.67039063 5.93324219 9.609375 6.7578125 C10.06828125 7.16773438 10.5271875 7.57765625 11 8 C9.625 9.5 9.625 9.5 8 11 C7.34 11 6.68 11 6 11 C5.67 11.99 5.34 12.98 5 14 C2.3125 14.8125 2.3125 14.8125 -1 15 C-3.9375 12.875 -3.9375 12.875 -6 10 C-6 6.93119845 -5.45851441 5.57812687 -3.5625 3.1875 C-2 2 -2 2 0 2 C0 1.34 0 0.68 0 0 Z " fill="#1D1D1D" transform="translate(198,291)"/>
<path d="M0 0 C0.47050781 0.40992188 0.94101563 0.81984375 1.42578125 1.2421875 C2.04839844 1.78101563 2.67101562 2.31984375 3.3125 2.875 C3.92738281 3.40867187 4.54226562 3.94234375 5.17578125 4.4921875 C7.13498212 6.1640447 7.13498212 6.1640447 10 8 C10 8.66 10 9.32 10 10 C11.2065625 10.433125 11.2065625 10.433125 12.4375 10.875 C15 12 15 12 16 14 C9.25 15 9.25 15 7 15 C5.576875 15.12375 5.576875 15.12375 4.125 15.25 C1 15 1 15 -1.4375 13.4375 C-3 11 -3 11 -2.875 7.5 C-2.15756875 4.63027499 -1.3634349 2.569117 0 0 Z " fill="#151515" transform="translate(172,314)"/>
<path d="M0 0 C0.515625 0.2475 1.03125 0.495 1.5625 0.75 C2.6875 5.5 2.6875 5.5 1.5625 7.75 C0.9025 7.75 0.2425 7.75 -0.4375 7.75 C-0.7675 8.74 -1.0975 9.73 -1.4375 10.75 C-2.200625 9.96625 -2.96375 9.1825 -3.75 8.375 C-6.34641805 5.67742283 -6.34641805 5.67742283 -9.4375 3.75 C-3.0375 -0.31153846 -3.0375 -0.31153846 0 0 Z " fill="#040404" transform="translate(290.4375,205.25)"/>
<path d="M0 0 C4.94813173 0.11858268 8.0925643 0.27775526 12.0625 3.4375 C14 6 14 6 14 8 C12.35 8.66 10.7 9.32 9 10 C9 9.34 9 8.68 9 8 C8.443125 7.79375 7.88625 7.5875 7.3125 7.375 C4.07498698 5.44999226 2.31768859 2.96149098 0 0 Z " fill="#2C2C2C" transform="translate(160,326)"/>
<path d="M0 0 C2.99220268 1.36370299 5.29026529 2.94908083 7.75 5.125 C8.67039063 5.93324219 8.67039063 5.93324219 9.609375 6.7578125 C10.06828125 7.16773438 10.5271875 7.57765625 11 8 C9.68 8.99 8.36 9.98 7 11 C7 9.68 7 8.36 7 7 C6.21625 7.495 5.4325 7.99 4.625 8.5 C2 10 2 10 0 10 C0.33 10.99 0.66 11.98 1 13 C0.01 12.67 -0.98 12.34 -2 12 C-0.87548273 9.0280615 0.22293791 6.66559313 2 4 C0.68 3.67 -0.64 3.34 -2 3 C-1.34 2.01 -0.68 1.02 0 0 Z " fill="#444444" transform="translate(198,291)"/>
<path d="M0 0 C-0.061875 0.7425 -0.12375 1.485 -0.1875 2.25 C0.03094296 5.45383006 0.90250005 6.64031256 3 9 C-1.75 8.25 -1.75 8.25 -4 6 C-4.99 7.485 -4.99 7.485 -6 9 C-7.32 9 -8.64 9 -10 9 C-10 8.34 -10 7.68 -10 7 C-9.34 7 -8.68 7 -8 7 C-8 6.34 -8 5.68 -8 5 C-3.5952381 0 -3.5952381 0 0 0 Z " fill="#1F1F1F" transform="translate(318,173)"/>
<path d="M0 0 C0.598125 0.226875 1.19625 0.45375 1.8125 0.6875 C1.1525 1.05875 0.4925 1.43 -0.1875 1.8125 C-2.54053045 3.59644778 -2.54053045 3.59644778 -2.4375 6.875 C-2.355 7.803125 -2.2725 8.73125 -2.1875 9.6875 C0.4525 9.0275 3.0925 8.3675 5.8125 7.6875 C5.4825 9.0075 5.1525 10.3275 4.8125 11.6875 C3.53375 11.749375 2.255 11.81125 0.9375 11.875 C0.21820313 11.90980469 -0.50109375 11.94460937 -1.2421875 11.98046875 C-1.88414062 11.88378906 -2.52609375 11.78710938 -3.1875 11.6875 C-5.50032587 8.21826119 -5.61228586 6.76544425 -5.1875 2.6875 C-3.56506312 0.17272283 -3.00892892 -0.42984699 0 0 Z " fill="#242424" transform="translate(332.1875,159.3125)"/>
<path d="M0 0 C0.99 0.66 1.98 1.32 3 2 C1.44333045 2.9884096 -0.12062426 3.96535082 -1.6875 4.9375 C-2.55761719 5.48277344 -3.42773438 6.02804687 -4.32421875 6.58984375 C-6.94624689 7.97167172 -9.08310075 8.58480173 -12 9 C-11.42655063 6.13275314 -11.1385485 5.1385485 -9 3 C-5.375 3.375 -5.375 3.375 -2 4 C-2 3.34 -2 2.68 -2 2 C-1.34 2 -0.68 2 0 2 C0 1.34 0 0.68 0 0 Z " fill="#3D3D3D" transform="translate(317,428)"/>
<path d="M0 0 C0.99 0.99 1.98 1.98 3 3 C2.525625 3.5775 2.05125 4.155 1.5625 4.75 C0.0515133 6.92582084 -0.54036151 8.42602448 -1 11 C0.98 11.66 2.96 12.32 5 13 C5 13.66 5 14.32 5 15 C2.125 14.6875 2.125 14.6875 -1 14 C-3 11 -3 11 -2.75 7.5625 C-2.13121575 4.6232748 -1.52580857 2.54301429 0 0 Z " fill="#303030" transform="translate(172,314)"/>
<path d="M0 0 C0 3 0 3 -1.19335938 4.53393555 C-1.73798828 5.062854 -2.28261719 5.59177246 -2.84375 6.13671875 C-3.72353516 7.00200195 -3.72353516 7.00200195 -4.62109375 7.88476562 C-5.24113281 8.47966797 -5.86117187 9.07457031 -6.5 9.6875 C-7.12003906 10.29400391 -7.74007812 10.90050781 -8.37890625 11.52539062 C-9.91264707 13.02373743 -11.45548198 14.51276493 -13 16 C-13 13 -13 13 -11 10 C-10.34 10 -9.68 10 -9 10 C-8.74476563 9.40703125 -8.48953125 8.8140625 -8.2265625 8.203125 C-6.88183502 5.78775462 -5.50785633 4.48788294 -3.375 2.75 C-2.74335938 2.22921875 -2.11171875 1.7084375 -1.4609375 1.171875 C-0.73777344 0.59179688 -0.73777344 0.59179688 0 0 Z " fill="#515151" transform="translate(193,77)"/>
<path d="M0 0 C0.8125 1.6875 0.8125 1.6875 1 4 C-1.125 6.375 -1.125 6.375 -4 9 C-5.7195803 10.96059964 -7.35330066 12.97691224 -9 15 C-9.66 14.67 -10.32 14.34 -11 14 C-11 13.34 -11 12.68 -11 12 C-10.34 12 -9.68 12 -9 12 C-9 11.34 -9 10.68 -9 10 C-8.34 10 -7.68 10 -7 10 C-7 9.34 -7 8.68 -7 8 C-6.34 8 -5.68 8 -5 8 C-4.731875 7.4225 -4.46375 6.845 -4.1875 6.25 C-2.98280141 3.9674132 -1.59201885 2.0262058 0 0 Z " fill="#505050" transform="translate(335,305)"/>
<path d="M0 0 C4.82034262 0.41317222 6.90992611 2.38019915 10 6 C10 6.66 10 7.32 10 8 C8.68 8 7.36 8 6 8 C4.296875 6.25 4.296875 6.25 2.75 4 C2.22921875 3.2575 1.7084375 2.515 1.171875 1.75 C0.78515625 1.1725 0.3984375 0.595 0 0 Z " fill="#202020" transform="translate(280,210)"/>
<path d="M0 0 C0.66 0 1.32 0 2 0 C2.103125 0.763125 2.20625 1.52625 2.3125 2.3125 C3.06227192 5.24342658 3.83473267 6.01517162 6 8 C6.33 8.99 6.66 9.98 7 11 C4.37565253 10.63802104 3.17986311 10.17343943 1.25 8.3125 C-0.32663401 5.39572708 -0.22275681 3.26709987 0 0 Z " fill="#222222" transform="translate(321,168)"/>
<path d="M0 0 C3.63 0 7.26 0 11 0 C11.33 0.66 11.66 1.32 12 2 C9.1875 4.0625 9.1875 4.0625 6 6 C5.01 5.67 4.02 5.34 3 5 C3.99 3.68 4.98 2.36 6 1 C4.02 1 2.04 1 0 1 C0 0.67 0 0.34 0 0 Z " fill="#2C2C2C" transform="translate(278,203)"/>
<path d="M0 0 C0.99 0.33 1.98 0.66 3 1 C2.01 1.495 2.01 1.495 1 2 C1 3.65 1 5.3 1 7 C-0.98 7 -2.96 7 -5 7 C-3.70700306 4.11562221 -2.34058637 2.12780579 0 0 Z " fill="#202020" transform="translate(316,423)"/>
<path d="M0 0 C0.66 0 1.32 0 2 0 C2 0.99 2 1.98 2 3 C2.66 3.33 3.32 3.66 4 4 C2.35 5.65 0.7 7.3 -1 9 C-0.67 6.03 -0.34 3.06 0 0 Z " fill="#434343" transform="translate(321,420)"/>
<path d="M0 0 C0.66 0.66 1.32 1.32 2 2 C1.38125 2.433125 0.7625 2.86625 0.125 3.3125 C-2.2197245 4.99740483 -2.2197245 4.99740483 -4 8 C-4.33 6.35 -4.66 4.7 -5 3 C-3.35 2.01 -1.7 1.02 0 0 Z " fill="#090909" transform="translate(200,294)"/>
<path d="M0 0 C0.66 0 1.32 0 2 0 C2 0.66 2 1.32 2 2 C3.2065625 2.433125 3.2065625 2.433125 4.4375 2.875 C7 4 7 4 8 6 C5.69 6.33 3.38 6.66 1 7 C1 5.68 1 4.36 1 3 C0.67 2.01 0.34 1.02 0 0 Z " fill="#6B6B6B" transform="translate(180,322)"/>
<path d="M0 0 C1.98 0 3.96 0 6 0 C6 0.66 6 1.32 6 2 C6.66 2.66 7.32 3.32 8 4 C7.34 4 6.68 4 6 4 C5.67 4.66 5.34 5.32 5 6 C3.35 4.02 1.7 2.04 0 0 Z " fill="#464646" transform="translate(160,326)"/>
<path d="M0 0 C0.99 0.66 1.98 1.32 3 2 C1.68 3.32 0.36 4.64 -1 6 C-0.34 6.33 0.32 6.66 1 7 C-0.65 7.66 -2.3 8.32 -4 9 C-2.94124926 5.59687262 -1.99097846 2.98646769 0 0 Z " fill="#545454" transform="translate(345,289)"/>
<path d="M0 0 C0 3.51716303 -0.82445585 4.37121748 -3 7 C-4.32 6.67 -5.64 6.34 -7 6 C-4.69 4.02 -2.38 2.04 0 0 Z " fill="#626262" transform="translate(301,291)"/>
<path d="M0 0 C2.0625 0.4375 2.0625 0.4375 4 1 C1.03 3.475 1.03 3.475 -2 6 C-1.125 1.125 -1.125 1.125 0 0 Z " fill="#070707" transform="translate(331,161)"/>
<path d="M0 0 C0.66 0 1.32 0 2 0 C2.66 1.65 3.32 3.3 4 5 C3.01 5.33 2.02 5.66 1 6 C1 5.01 1 4.02 1 3 C0.34 3 -0.32 3 -1 3 C-0.67 2.01 -0.34 1.02 0 0 Z " fill="#252525" transform="translate(322,417)"/>
<path d="M0 0 C0.66 0 1.32 0 2 0 C1.375 2.4375 1.375 2.4375 0 5 C-3.125 5.8125 -3.125 5.8125 -6 6 C-4 4 -2 2 0 0 Z " fill="#5B5B5B" transform="translate(315,325)"/>
</svg>
