<?xml version="1.0" encoding="UTF-8"?>
<svg version="1.1" xmlns="http://www.w3.org/2000/svg" width="360" height="360">
<path d="M0 0 C1.07185547 -0.01998047 2.14371094 -0.03996094 3.24804688 -0.06054688 C9.50479251 -0.05667273 13.3298971 0.21527585 18.0625 4.4375 C22.54628914 9.4060231 23.22014806 13.22836649 23.37890625 19.73046875 C23.39968735 20.43649734 23.42046844 21.14252594 23.44187927 21.86994934 C23.50717491 24.12153551 23.56616647 26.37323662 23.625 28.625 C23.66820425 30.1530066 23.71181916 31.68100164 23.75585938 33.20898438 C23.86283574 36.95170562 23.96415922 40.6945423 24.0625 44.4375 C25.07642822 44.76580811 26.09035645 45.09411621 27.13500977 45.43237305 C28.48720878 45.87528422 29.83933721 46.31841094 31.19140625 46.76171875 C31.85708618 46.97662964 32.52276611 47.19154053 33.20861816 47.41296387 C38.77192072 49.2446791 43.93352772 51.60148003 49.0625 54.4375 C49.805 53.4165625 49.805 53.4165625 50.5625 52.375 C53.12548601 49.36349144 55.84419749 46.95524339 58.8515625 44.40625 C61.24289379 42.27686666 63.41848727 40.00697414 65.625 37.6875 C70.01531571 33.29718429 73.03185206 30.88838604 79.3671875 30.1796875 C86.30036635 30.20128619 89.92055886 33.19995244 94.7265625 37.9453125 C105.2071026 49.12689207 105.2071026 49.12689207 105.3125 56.25 C105.35117187 57.80654297 105.35117187 57.80654297 105.390625 59.39453125 C105.02032291 62.82864233 104.14436391 64.70379035 102.0625 67.4375 C101.4025 67.4375 100.7425 67.4375 100.0625 67.4375 C99.69125 68.30375 99.69125 68.30375 99.3125 69.1875 C97.87950012 71.76689979 96.27825324 73.49871592 94.0625 75.4375 C93.4025 75.4375 92.7425 75.4375 92.0625 75.4375 C91.85625 75.994375 91.65 76.55125 91.4375 77.125 C89.55877846 80.28466804 86.87243547 82.09588711 84.0625 84.4375 C82.52105802 86.09747504 82.52105802 86.09747504 82.0625 88.4375 C83.00420575 91.00551665 83.98758894 93.22328105 85.25 95.625 C88.05202717 101.10969821 90.2464391 106.54612712 92.0625 112.4375 C93.03074707 112.4468457 93.99899414 112.45619141 94.99658203 112.46582031 C98.60885647 112.50586783 102.22029235 112.57166554 105.83203125 112.64501953 C107.3914915 112.67314413 108.95109204 112.69440089 110.51074219 112.70849609 C112.76049173 112.73004542 115.00856974 112.77675057 117.2578125 112.828125 C117.9486795 112.82935364 118.63954651 112.83058228 119.35134888 112.83184814 C124.35105228 112.98117042 127.18406759 114.34530375 131.0625 117.4375 C136.40313944 123.21116426 136.26644128 128.23667129 136.3125 135.75 C136.3434375 136.99426758 136.3434375 136.99426758 136.375 138.26367188 C136.41370378 144.39338282 135.7392246 149.39979219 131.52734375 154.1796875 C126.5705345 157.85609334 123.50748033 158.67411747 117.4375 159 C116.68927979 159.0424585 115.94105957 159.08491699 115.17016602 159.12866211 C107.46624055 159.52979893 99.77415803 159.53091174 92.0625 159.4375 C91.68738281 160.47648438 91.31226563 161.51546875 90.92578125 162.5859375 C88.05347488 170.44658948 85.06733604 178.0657664 81.0625 185.4375 C81.7225 185.4375 82.3825 185.4375 83.0625 185.4375 C84.41636936 187.08752828 85.74928142 188.7549387 87.0625 190.4375 C87.7225 190.7675 88.3825 191.0975 89.0625 191.4375 C89.0625 192.0975 89.0625 192.7575 89.0625 193.4375 C89.7225 193.4375 90.3825 193.4375 91.0625 193.4375 C92.39453125 194.828125 92.39453125 194.828125 93.875 196.6875 C95.76485111 198.98297769 97.39540744 200.70072914 99.75 202.5625 C103.15981683 205.32721635 104.84280024 207.9668971 105.49609375 212.33984375 C105.49738281 213.34144531 105.49867188 214.34304688 105.5 215.375 C105.51933594 216.37402344 105.53867187 217.37304688 105.55859375 218.40234375 C104.51519377 224.78597988 99.64394627 229.24330529 95.25 233.6875 C94.5065332 234.48027344 94.5065332 234.48027344 93.74804688 235.2890625 C89.58486314 239.51118449 85.70230931 240.97402683 79.76171875 241.73046875 C72.87249447 241.36928612 69.23746331 237.74031091 64.56201172 232.96777344 C62.83164559 231.20190973 61.07498804 229.46431956 59.31640625 227.7265625 C55.87673995 224.31798923 52.46451532 220.88363367 49.0625 217.4375 C48.09570312 217.90800781 47.12890625 218.37851562 46.1328125 218.86328125 C44.81788936 219.4925659 43.50277469 220.12145046 42.1875 220.75 C41.55585938 221.05873047 40.92421875 221.36746094 40.2734375 221.68554688 C35.01945931 224.18118652 29.66288343 225.88679049 24.0625 227.4375 C24.0531543 228.36498047 24.04380859 229.29246094 24.03417969 230.24804688 C23.98990154 233.7225788 23.92817286 237.19592406 23.85498047 240.66992188 C23.8269306 242.16720447 23.80563726 243.66463075 23.79150391 245.16210938 C23.62079772 262.23272754 23.62079772 262.23272754 19.0625 267.4375 C13.22466664 272.22012031 7.46518378 272.10755945 0.125 272.0625 C-1.44411133 272.11083984 -1.44411133 272.11083984 -3.04492188 272.16015625 C-9.25696758 272.16796523 -13.64769733 271.49925407 -18.38378906 267.2902832 C-24.38390418 260.13521193 -23.47270286 250.20388268 -23.625 241.375 C-23.65824298 240.01884868 -23.69273885 238.66272747 -23.72851562 237.30664062 C-23.8104637 234.01701063 -23.87978962 230.72762945 -23.9375 227.4375 C-25.56558594 226.84001953 -25.56558594 226.84001953 -27.2265625 226.23046875 C-28.67194107 225.69549097 -30.11724988 225.16032469 -31.5625 224.625 C-32.27535156 224.36396484 -32.98820312 224.10292969 -33.72265625 223.83398438 C-37.01999645 222.60882586 -40.12041309 221.34367634 -43.2578125 219.734375 C-46.65604814 218.08974784 -48.39139146 218.22859936 -51.9375 219.4375 C-53.13753343 221.25351365 -53.13753343 221.25351365 -53.9375 223.4375 C-55.9375 225.6875 -55.9375 225.6875 -57.9375 227.4375 C-58.5975 227.4375 -59.2575 227.4375 -59.9375 227.4375 C-60.185 228.015 -60.4325 228.5925 -60.6875 229.1875 C-62.12049988 231.76689979 -63.72174676 233.49871592 -65.9375 235.4375 C-66.5975 235.4375 -67.2575 235.4375 -67.9375 235.4375 C-68.2675 236.4275 -68.5975 237.4175 -68.9375 238.4375 C-74.84090977 241.38920489 -79.51725724 242.14795867 -85.9375 240.4375 C-93.85772656 236.56164445 -101.57651575 228.57688038 -104.9375 220.4375 C-105.3359375 218.09375 -105.3359375 218.09375 -105.3125 215.9375 C-105.32023437 215.2259375 -105.32796875 214.514375 -105.3359375 213.78125 C-104.35827754 208.03030903 -101.16399908 204.30820048 -97.0625 200.375 C-95.79792969 199.15103516 -95.79792969 199.15103516 -94.5078125 197.90234375 C-93.65960938 197.08894531 -92.81140625 196.27554688 -91.9375 195.4375 C-91.06609375 194.56222656 -90.1946875 193.68695313 -89.296875 192.78515625 C-87.61111952 191.10777373 -85.8570312 189.49796192 -84.0625 187.9375 C-81.66629084 185.70809878 -81.66629084 185.70809878 -82.0859375 183.27734375 C-83.4298014 178.79574258 -85.44055073 174.6440415 -87.41015625 170.40820312 C-89.22264982 166.40782506 -90.43996975 162.85308094 -90.9375 158.4375 C-91.54110352 158.47302979 -92.14470703 158.50855957 -92.76660156 158.54516602 C-121.33175808 160.17598271 -121.33175808 160.17598271 -128.4375 156.75 C-133.33428988 152.22046936 -135.1463516 149.30695136 -135.50390625 142.62890625 C-135.5237406 140.41935947 -135.52180034 138.20952826 -135.5 136 C-135.52384766 134.89333984 -135.54769531 133.78667969 -135.57226562 132.64648438 C-135.56173541 126.77413595 -135.34840622 122.30810299 -131.40087891 117.75073242 C-123.51577549 110.67466113 -110.69995184 112.20184755 -100.74536133 112.73144531 C-97.47304313 112.9349916 -94.20559661 113.17459619 -90.9375 113.4375 C-90.83953125 112.89222656 -90.7415625 112.34695312 -90.640625 111.78515625 C-89.22201547 104.63096162 -86.61709126 98.50709782 -83.125 92.125 C-81.75507066 89.62362452 -81.75507066 89.62362452 -82.13671875 87.47265625 C-83.14900343 84.89997177 -84.40642216 83.90237273 -86.5625 82.1875 C-90.83638442 78.61575373 -94.36460225 74.69492489 -97.9375 70.4375 C-99.06222118 69.14559054 -100.18720515 67.8539098 -101.3125 66.5625 C-104.90277641 62.43464209 -105.34786399 59.54338609 -105.27734375 54.09765625 C-104.35788301 46.90049805 -98.40557866 40.84501932 -92.9375 36.4375 C-92.2775 36.4375 -91.6175 36.4375 -90.9375 36.4375 C-90.6075 35.4475 -90.2775 34.4575 -89.9375 33.4375 C-84.01703676 30.47726838 -79.38116228 29.80820897 -72.9375 31.4375 C-69.875 32.875 -69.875 32.875 -67.9375 34.4375 C-67.9375 35.0975 -67.9375 35.7575 -67.9375 36.4375 C-67.2775 36.4375 -66.6175 36.4375 -65.9375 36.4375 C-65.9375 37.0975 -65.9375 37.7575 -65.9375 38.4375 C-65.380625 38.664375 -64.82375 38.89125 -64.25 39.125 C-59.13252789 42.0295112 -55.63433185 46.96238776 -51.9375 51.4375 C-50.95459032 52.45430311 -49.96415213 53.46488219 -48.9375 54.4375 C-46.13600876 53.34333267 -43.3805805 52.18932192 -40.6328125 50.96484375 C-39.45460938 50.44019531 -38.27640625 49.91554687 -37.0625 49.375 C-35.88945312 48.84777344 -34.71640625 48.32054687 -33.5078125 47.77734375 C-29.92797445 46.43392531 -26.71512285 45.91737237 -22.9375 45.4375 C-22.94797363 44.52983887 -22.95844727 43.62217773 -22.96923828 42.68701172 C-23.00345387 39.29880196 -23.0284637 35.91077756 -23.04736328 32.52246094 C-23.05738105 31.05986624 -23.07099912 29.59729137 -23.08837891 28.13476562 C-23.11281439 26.02468961 -23.12402537 23.91487988 -23.1328125 21.8046875 C-23.14328613 20.53737793 -23.15375977 19.27006836 -23.16455078 17.96435547 C-22.7771135 11.946163 -21.07958455 7.81627509 -16.9375 3.4375 C-11.42609595 -0.45307558 -6.5363696 -0.04307973 0 0 Z M-50.5625 84.875 C-51.34625 85.720625 -52.13 86.56625 -52.9375 87.4375 C-53.45699219 87.94023437 -53.97648437 88.44296875 -54.51171875 88.9609375 C-63.11716032 97.817774 -68.57295563 110.43132214 -70.9375 122.4375 C-71.164375 123.55125 -71.39125 124.665 -71.625 125.8125 C-73.22350729 144.35518454 -69.88167395 163.50741774 -58.3125 178.5625 C-57.20267139 179.86722535 -56.07642303 181.15809307 -54.9375 182.4375 C-54.16277344 183.40558594 -53.38804688 184.37367188 -52.58984375 185.37109375 C-41.14840982 199.09049912 -23.50563227 206.4833714 -6.05322266 208.29003906 C13.59014989 209.65913634 32.9218173 203.33487088 47.88671875 190.5078125 C51.54567421 187.02622113 54.87634698 183.35396225 58.0625 179.4375 C58.52269531 178.88707031 58.98289063 178.33664063 59.45703125 177.76953125 C71.19149534 162.68236314 73.59229854 143.914147 72.0625 125.4375 C70.00510561 110.09962484 62.36109535 96.71406274 52.0625 85.4375 C51.52109375 84.84324219 50.9796875 84.24898437 50.421875 83.63671875 C49.11465641 82.21698321 49.11465641 82.21698321 47.0625 82.4375 C47.0625 81.7775 47.0625 81.1175 47.0625 80.4375 C19.06081145 54.92634625 -24.22916231 60.422615 -50.5625 84.875 Z " fill="#f5f5f5" transform="translate(179.9375,44.5625)"/>
<path d="M0 0 C14.03418144 11.84374842 22.21067009 28.36835275 23.9921875 46.62890625 C24.99406877 58.68726301 22.84859952 71.97743844 16.9921875 82.62890625 C16.52167969 83.55960937 16.05117187 84.4903125 15.56640625 85.44921875 C7.2434498 100.9827556 -6.35074697 111.80991106 -23.0703125 117.12890625 C-40.91130797 122.08856522 -59.52767512 120.80688894 -76.0078125 112.25390625 C-92.96040102 102.39628996 -104.07904735 88.11423054 -109.8203125 69.25390625 C-114.35577212 49.40155156 -110.10608268 30.86303893 -100.0078125 13.62890625 C-90.89083036 -0.66466744 -75.40944228 -10.60761901 -59.0078125 -14.37109375 C-37.50774635 -18.08241469 -17.2857657 -13.62657114 0 0 Z M-75.31640625 29.25390625 C-82.22401843 38.95327855 -83.35698791 49.79118842 -81.58203125 61.41796875 C-78.71861884 72.48514554 -71.1079988 80.95299685 -61.5703125 86.87890625 C-51.74348338 91.70612055 -40.76884549 92.21305254 -30.390625 88.67578125 C-20.61094184 84.37913356 -12.95449152 77.06739725 -8.0078125 67.62890625 C-4.2353464 56.93086806 -3.83471538 47.2769868 -8.0078125 36.62890625 C-14.10510896 25.44226748 -22.39269351 18.33113767 -34.515625 14.47265625 C-50.20182107 10.68270284 -65.1544492 17.1006162 -75.31640625 29.25390625 Z " fill="#f5f5f5" transform="translate(224.0078125,128.37109375)"/>
<path d="M0 0 C1.08410156 -0.00708984 2.16820312 -0.01417969 3.28515625 -0.02148438 C12.05455384 0.04897432 12.05455384 0.04897432 15.875 3.4375 C14.885 3.7675 13.895 4.0975 12.875 4.4375 C12.875 3.7775 12.875 3.1175 12.875 2.4375 C-4.53330428 1.43704868 -4.53330428 1.43704868 -20.125 8.4375 C-18.94731721 5.13998819 -17.1334219 3.06718704 -14.14941406 1.21826172 C-9.65003051 -0.51702875 -4.75025708 -0.08817842 0 0 Z " fill="#f5f5f5" transform="translate(180.125,44.5625)"/>
<path d="M0 0 C0 2.33333333 0 4.66666667 0 7 C-0.66 7 -1.32 7 -2 7 C-2 7.66 -2 8.32 -2 9 C-6.03910791 13.3466542 -10.11497889 16.67587025 -16 18 C-15.34 17.360625 -14.68 16.72125 -14 16.0625 C-8.97981811 11.04231811 -4.18808304 5.73585285 0 0 Z " fill="#f5f5f5" transform="translate(240,220)"/>
<path d="M0 0 C-1.30574169 2.91280837 -2.7074208 4.80294493 -5 7 C-5.99 8.485 -5.99 8.485 -7 10 C-8.65438613 10.69658363 -10.32254318 11.36096883 -12 12 C-13.36365283 12.95824253 -14.70794169 13.94721175 -16 15 C-14.60249952 11.84164893 -12.94801766 9.67727175 -10.5 7.25 C-9.8915625 6.63640625 -9.283125 6.0228125 -8.65625 5.390625 C-7 4 -7 4 -5 4 C-4.67 3.01 -4.34 2.02 -4 1 C-2 0 -2 0 0 0 Z " fill="#f5f5f5" transform="translate(94,77)"/>
<path d="M0 0 C0.66 0.33 1.32 0.66 2 1 C0.8125 3.9375 0.8125 3.9375 -1 7 C-3.625 7.75 -3.625 7.75 -6 8 C-6.33 8.66 -6.66 9.32 -7 10 C-9.97 10 -12.94 10 -16 10 C-12.30147905 7.53431937 -8.41926394 5.52152135 -4.49609375 3.4375 C-1.93095759 2.10420446 -1.93095759 2.10420446 0 0 Z " fill="#f5f5f5" transform="translate(222,238)"/>
<path d="M0 0 C0 3.54913582 -0.56122405 3.97588078 -2.875 6.5 C-4.81019815 8.63152259 -6.39002236 10.58503354 -8 13 C-9.96752828 14.06246527 -11.96587579 15.07137808 -14 16 C-12.48357123 12.40155551 -10.35026558 10.14286857 -7.5625 7.4375 C-6.78003906 6.67308594 -5.99757813 5.90867188 -5.19140625 5.12109375 C-4.46824219 4.42113281 -3.74507812 3.72117188 -3 3 C-1.99780943 2.00219538 -0.99678975 1.00319998 0 0 Z " fill="#f5f5f5" transform="translate(91,237)"/>
<path d="M0 0 C0.99 0.33 1.98 0.66 3 1 C2.67 1.66 2.34 2.32 2 3 C3.75032844 2.85816304 5.50025534 2.71136571 7.25 2.5625 C8.71179688 2.44068359 8.71179688 2.44068359 10.203125 2.31640625 C12.56461753 2.04925416 14.71901065 1.64628032 17 1 C14.62115735 3.85770059 12.92085669 4.49879419 9.25 4.875 C4.30067985 5.25962459 1.32397931 4.34998876 -3 2 C-2.01 1.34 -1.02 0.68 0 0 Z " fill="#f5f5f5" transform="translate(253,281)"/>
<path d="M0 0 C0 3.71884228 -0.8740066 4.36147729 -3.3125 7.0625 C-3.92738281 7.75472656 -4.54226562 8.44695312 -5.17578125 9.16015625 C-7 11 -7 11 -10 13 C-12.1875 12.625 -12.1875 12.625 -14 12 C-13.1646875 11.6596875 -13.1646875 11.6596875 -12.3125 11.3125 C-9.34144815 9.62622733 -7.35477875 7.469646 -5 5 C-3.33333333 3.33333333 -1.66666667 1.66666667 0 0 Z " fill="#f5f5f5" transform="translate(240,88)"/>
<path d="M0 0 C0.66 0.33 1.32 0.66 2 1 C0.92807816 2.3218362 -0.15802695 3.63217927 -1.25 4.9375 C-1.85328125 5.66839844 -2.4565625 6.39929688 -3.078125 7.15234375 C-5.10741134 9.10326334 -6.254407 9.61731779 -9 10 C-8.06409496 8.8944811 -7.12620142 7.79064547 -6.1875 6.6875 C-5.66542969 6.07261719 -5.14335937 5.45773438 -4.60546875 4.82421875 C-3.12827531 3.14575321 -1.59960869 1.56117966 0 0 Z " fill="#f5f5f5" transform="translate(250,78)"/>
<path d="M0 0 C0 0.66 0 1.32 0 2 C-5.00873617 6.89225393 -5.00873617 6.89225393 -8.875 7.3125 C-9.926875 7.1578125 -9.926875 7.1578125 -11 7 C-4.36842105 0 -4.36842105 0 0 0 Z " fill="#f5f5f5" transform="translate(149,121)"/>
<path d="M0 0 C-3.64859761 3.04049801 -7.7444533 4.96518762 -12 7 C-9.22698119 1.11341622 -6.59891686 -0.44992615 0 0 Z " fill="#f5f5f5" transform="translate(172,46)"/>
<path d="M0 0 C0 2.33333333 0 4.66666667 0 7 C-0.66 7 -1.32 7 -2 7 C-2.33 7.66 -2.66 8.32 -3 9 C-3.66 8.67 -4.32 8.34 -5 8 C-3.62845496 5.04590299 -2.01136276 2.55991624 0 0 Z " fill="#f5f5f5" transform="translate(240,220)"/>
<path d="M0 0 C-0.66 1.98 -1.32 3.96 -2 6 C-2.66 5.67 -3.32 5.34 -4 5 C-4.33 5.33 -4.66 5.66 -5 6 C-5.66 6 -6.32 6 -7 6 C-5.52522876 2.59668175 -4.14385429 0 0 0 Z " fill="#f5f5f5" transform="translate(55,159)"/>
<path d="M0 0 C0.99 0.33 1.98 0.66 3 1 C3 1.66 3 2.32 3 3 C3.66 3 4.32 3 5 3 C3.91926148 5.16147703 2.80636736 6.41039672 1 8 C0.34 8 -0.32 8 -1 8 C-0.67 5.36 -0.34 2.72 0 0 Z " fill="#f5f5f5" transform="translate(98,130)"/>
<path d="M0 0 C0.33 1.32 0.66 2.64 1 4 C1.66 4 2.32 4 3 4 C2.34 5.32 1.68 6.64 1 8 C0.01 8 -0.98 8 -2 8 C-1.47731534 5.23723823 -0.89130413 2.6739124 0 0 Z " fill="#f5f5f5" transform="translate(93,144)"/>
<path d="M0 0 C0.99 0.33 1.98 0.66 3 1 C3 1.66 3 2.32 3 3 C3.66 3 4.32 3 5 3 C4.67 3.66 4.34 4.32 4 5 C2.35 4.67 0.7 4.34 -1 4 C-0.67 2.68 -0.34 1.36 0 0 Z " fill="#f5f5f5" transform="translate(266,235)"/>
</svg>
